<?xml version="1.0" encoding="UTF-8"?><svg id="e" xmlns="http://www.w3.org/2000/svg" xmlns:xlink="http://www.w3.org/1999/xlink" viewBox="0 0 153 153"><defs><style>.f{fill:#fff1ef;font-family:SpaceMono-Bold, 'Space Mono';font-size:42.96px;font-weight:700;}.g{fill:none;}.g,.h,.i,.j{stroke-width:0px;}.h{fill:#7434fd;}.i{fill:url(#b);}.j{fill:url(#c);}</style><linearGradient id="b" x1="22.43" y1="44.68" x2="131.47" y2="108.85" gradientUnits="userSpaceOnUse"><stop offset="0" stop-color="#bbefff"/><stop offset="1" stop-color="#ff9a9e"/></linearGradient><linearGradient id="c" x1="47.78" y1="76.5" x2="105.1" y2="76.5" xlink:href="#b"/><symbol id="a" viewBox="0 0 153 153"><rect class="g" width="153" height="153"/><path class="i" d="M129.48,38.82l-46.84-27.04c-3.38-1.95-8.91-1.95-12.29,0l-46.84,27.04c-3.38,1.95-6.14,6.74-6.14,10.64v54.08c0,3.9,2.77,8.69,6.14,10.64l46.84,27.04c3.38,1.95,8.91,1.95,12.29,0l46.84-27.04c3.38-1.95,6.14-6.74,6.14-10.64v-54.08c0-3.9-2.77-8.69-6.14-10.64ZM127.66,82.17l-46.54,54c-2.55,2.96-6.72,2.96-9.28.01l-47.04-54.31c-2.55-2.95-2.55-7.78,0-10.73l47.04-54.31c2.55-2.95,6.72-2.94,9.25.03l46.59,54.54c2.53,2.97,2.52,7.81-.02,10.77Z"/><rect class="j" x="47.78" y="47.84" width="57.31" height="57.31" rx="7.1" ry="7.1"/></symbol><symbol id="d" viewBox="0 0 153 153"><use width="153" height="153" xlink:href="#a"/><path class="h" d="M124.47,148c21.13,0,25.74-4.6,25.74-25.74s-4.6-25.74-25.74-25.74h-22.23c-21.13,0-25.74,4.6-25.74,25.74s4.6,25.74,25.74,25.74h22.23Z"/><text class="f" transform="translate(87.06 136)"><tspan x="0" y="0">QA</tspan></text></symbol></defs><use width="153" height="153" xlink:href="#d"/></svg>